# xmcd
#
# Track frame offsets: 
#        150
#        33674
#        47557
#        57300
#        71041
#        82441
#        98268
#        112213
#        131263
#        150848
#        170342
#        181750
#        198213
#        213581
#
# Disc length: 2995 seconds
#
# Revision: 0
# Processed by: cddbd v1.5.2PL0 Copyright (c) Steve Scherf et al.
# Submitted via: ExactAudioCopy v1.0b3
#
DISCID=bb0bb10e
DTITLE=Rory Block - Guitar Artistry of Rory Block Disk 2
DYEAR=1995
DGENRE=Country Blues
TTITLE0=Intro to Me and the Devil
TTITLE1=Me and the Devil
TTITLE2=Why I Play the Blues
TTITLE3=From the Dust
TTITLE4=On Writing Songs
TTITLE5=Love and Whiskey
TTITLE6=Intro to Spider Boy
TTITLE7=Spider Boy
TTITLE8=Intro to Like a Shotgun
TTITLE9=Like a Shotgun
TTITLE10=Intro to Silver Wings
TTITLE11=Silver Wings
TTITLE12=Rory's Martin Signature Guitar
TTITLE13=Crossroad Blues (take 2)
EXTD=
EXTT0=
EXTT1=
EXTT2=
EXTT3=
EXTT4=
EXTT5=
EXTT6=
EXTT7=
EXTT8=
EXTT9=
EXTT10=
EXTT11=
EXTT12=
EXTT13=
PLAYORDER=
